<?xml version="1.0" standalone="no"?>
<!DOCTYPE svg PUBLIC "-//W3C//DTD SVG 20010904//EN"
 "http://www.w3.org/TR/2001/REC-SVG-20010904/DTD/svg10.dtd">
<svg version="1.0" xmlns="http://www.w3.org/2000/svg"
 width="500.000000pt" height="500.000000pt" viewBox="0 0 500.000000 500.000000"
 preserveAspectRatio="xMidYMid meet">

<g transform="translate(0.000000,500.000000) scale(0.100000,-0.100000)"
fill="#000000" stroke="none">
<path d="M2850 2475 c0 -35 0 -35 45 -35 45 0 45 0 45 35 0 35 0 35 -45 35
-45 0 -45 0 -45 -35z"/>
<path d="M3560 2439 c0 -69 -1 -71 -22 -64 -93 28 -105 29 -155 4 -63 -31 -93
-77 -93 -141 0 -59 19 -98 63 -132 48 -37 104 -43 161 -18 45 21 46 21 46 1 0
-16 7 -19 40 -19 l40 0 0 220 0 220 -40 0 -40 0 0 -71z m-71 -134 c31 -15 41
-33 41 -70 0 -37 -10 -55 -41 -70 -40 -21 -66 -19 -94 10 -40 40 -30 116 18
135 32 13 44 12 76 -5z"/>
<path d="M870 2275 l0 -205 45 0 44 0 3 83 3 82 63 3 62 3 0 -86 0 -85 50 0
50 0 0 205 0 205 -50 0 -50 0 0 -80 0 -81 -62 3 -63 3 -3 78 -3 77 -44 0 -45
0 0 -205z"/>
<path d="M1695 2403 c-70 -15 -99 -46 -97 -104 1 -46 35 -76 101 -90 63 -14
91 -33 74 -50 -6 -6 -28 -9 -49 -7 -29 2 -41 9 -49 26 -8 19 -17 22 -45 20
-31 -3 -35 -6 -32 -28 9 -66 73 -107 151 -96 55 8 89 29 102 64 24 62 -28 123
-115 136 -73 11 -90 56 -21 56 43 0 65 -9 65 -26 0 -10 12 -14 40 -14 25 0 40
5 40 13 0 19 -37 75 -57 85 -24 12 -83 21 -108 15z"/>
<path d="M1230 2235 l0 -165 40 0 40 0 0 94 c0 85 2 98 24 122 30 36 86 39
119 6 19 -20 22 -35 25 -122 l4 -100 39 0 39 0 0 88 c0 48 -5 105 -11 127 -27
98 -133 141 -216 89 -21 -13 -23 -13 -23 6 0 17 -7 20 -40 20 l-40 0 0 -165z"/>
<path d="M1900 2235 l0 -165 40 0 40 0 0 84 c0 45 5 97 10 113 16 45 76 67
111 40 30 -23 39 -56 39 -146 l0 -91 40 0 40 0 0 100 c0 94 2 103 25 125 13
14 36 25 50 25 14 0 37 -11 50 -25 23 -22 25 -31 25 -125 l0 -100 40 0 40 0 0
105 c0 67 -5 118 -14 139 -36 86 -151 112 -225 50 -26 -22 -30 -22 -42 -7 -17
20 -71 43 -101 43 -13 0 -36 -7 -52 -15 -35 -18 -36 -18 -36 0 0 11 -11 15
-40 15 l-40 0 0 -165z"/>
<path d="M2491 2293 c3 -85 8 -115 24 -142 41 -69 115 -97 176 -67 39 20 39
20 39 1 0 -11 11 -15 40 -15 l40 0 0 165 0 165 -40 0 -40 0 0 -84 c0 -104 -12
-140 -52 -157 -26 -10 -35 -10 -57 2 -40 22 -51 55 -51 152 l0 87 -41 0 -41 0
3 -107z"/>
<path d="M2850 2235 l0 -165 45 0 45 0 0 165 0 165 -45 0 -45 0 0 -165z"/>
<path d="M2980 2355 l0 -45 77 0 78 0 -78 -78 c-72 -72 -77 -80 -77 -120 l0
-42 140 0 140 0 0 45 0 45 -77 0 -78 0 78 78 c72 72 77 80 77 120 l0 42 -140
0 -140 0 0 -45z"/>
<path d="M3680 2235 l0 -165 45 0 45 0 0 94 c0 111 3 122 41 141 39 21 53 19
88 -11 31 -26 31 -26 31 -125 l0 -99 40 0 40 0 0 106 c0 121 -14 165 -64 195
-50 30 -91 34 -136 11 -39 -19 -40 -19 -40 -1 0 16 -8 19 -45 19 l-45 0 0
-165z"/>
<path d="M4050 2115 l0 -45 40 0 40 0 0 45 0 45 -40 0 -40 0 0 -45z"/>
</g>
</svg>
